REM DIRINDEX 1\2\4\8,1\2\4\9,1\2\4\10,1\2\5\11,1\2\5\12,1\2\5\13,1\2\5\14,1\2\5\15,1\3\6\16,1\3\6\17,1\3\6\18,1\3\7\19,1\3\7\20,1\3\7\21,1\3\7\22,1\3\7\23
REM DIRNAME "folder01","folder02","folder03","folder04","folder05","folder06","folder07","folder08","folder09","folder10","folder11","folder12","folder13","folder14","folder15","folder16","folder17","folder18","folder19","folder20","folder21","folder22","folder23"
TITLE ""
FILE "LR_black_phrase_E_B09.mp3" MP3
  TRACK 01 AUDIO
    TITLE "0:"
    INDEX 01 00:00:00
  TRACK 02 AUDIO
    TITLE "16:cjc171_09621"
    INDEX 01 00:00:14
  TRACK 03 AUDIO
    TITLE "0:"
    INDEX 01 00:01:22
  TRACK 04 AUDIO
    TITLE "17:cjc171_09622"
    INDEX 01 00:01:53
  TRACK 05 AUDIO
    TITLE "0:"
    INDEX 01 00:03:75
  TRACK 06 AUDIO
    TITLE "18:cjc171_09623"
    INDEX 01 00:04:57
  TRACK 07 AUDIO
    TITLE "0:"
    INDEX 01 00:07:03
  TRACK 08 AUDIO
    TITLE "16:cjc171_09624"
    INDEX 01 00:08:08
  TRACK 09 AUDIO
    TITLE "0:"
    INDEX 01 00:09:27
  TRACK 10 AUDIO
    TITLE "17:cjc171_09625"
    INDEX 01 00:09:56
  TRACK 11 AUDIO
    TITLE "0:"
    INDEX 01 00:12:29
  TRACK 12 AUDIO
    TITLE "18:cjc171_09626"
    INDEX 01 00:13:07
  TRACK 13 AUDIO
    TITLE "0:"
    INDEX 01 00:15:51
  TRACK 14 AUDIO
    TITLE "16:cjc171_09627"
    INDEX 01 00:16:56
  TRACK 15 AUDIO
    TITLE "0:"
    INDEX 01 00:17:62
  TRACK 16 AUDIO
    TITLE "17:cjc171_09628"
    INDEX 01 00:18:16
  TRACK 17 AUDIO
    TITLE "0:"
    INDEX 01 00:19:70
  TRACK 18 AUDIO
    TITLE "18:cjc171_09629"
    INDEX 01 00:20:52
  TRACK 19 AUDIO
    TITLE "0:"
    INDEX 01 00:22:30
  TRACK 20 AUDIO
    TITLE "16:cjc171_09630"
    INDEX 01 00:23:29
  TRACK 21 AUDIO
    TITLE "0:"
    INDEX 01 00:24:44
  TRACK 22 AUDIO
    TITLE "17:cjc171_09631"
    INDEX 01 00:24:68
  TRACK 23 AUDIO
    TITLE "0:"
    INDEX 01 00:26:41
  TRACK 24 AUDIO
    TITLE "18:cjc171_09632"
    INDEX 01 00:27:17
  TRACK 25 AUDIO
    TITLE "0:"
    INDEX 01 00:28:67
  TRACK 26 AUDIO
    TITLE "16:cjc171_09633"
    INDEX 01 00:29:71
  TRACK 27 AUDIO
    TITLE "0:"
    INDEX 01 00:31:11
  TRACK 28 AUDIO
    TITLE "17:cjc171_09634"
    INDEX 01 00:31:30
  TRACK 29 AUDIO
    TITLE "0:"
    INDEX 01 00:33:22
  TRACK 30 AUDIO
    TITLE "18:cjc171_09635"
    INDEX 01 00:33:65
  TRACK 31 AUDIO
    TITLE "0:"
    INDEX 01 00:35:56
  TRACK 32 AUDIO
    TITLE "16:cjc171_09636"
    INDEX 01 00:36:51
  TRACK 33 AUDIO
    TITLE "0:"
    INDEX 01 00:38:01
  TRACK 34 AUDIO
    TITLE "17:cjc171_09637"
    INDEX 01 00:38:19
  TRACK 35 AUDIO
    TITLE "0:"
    INDEX 01 00:40:12
  TRACK 36 AUDIO
    TITLE "18:cjc171_09638"
    INDEX 01 00:40:55
  TRACK 37 AUDIO
    TITLE "0:"
    INDEX 01 00:42:48
  TRACK 38 AUDIO
    TITLE "16:cjc171_09639"
    INDEX 01 00:43:47
  TRACK 39 AUDIO
    TITLE "0:"
    INDEX 01 00:44:60
  TRACK 40 AUDIO
    TITLE "17:cjc171_09640"
    INDEX 01 00:45:17
  TRACK 41 AUDIO
    TITLE "0:"
    INDEX 01 00:48:21
  TRACK 42 AUDIO
    TITLE "18:cjc171_09641"
    INDEX 01 00:48:74
  TRACK 43 AUDIO
    TITLE "0:"
    INDEX 01 00:52:01
  TRACK 44 AUDIO
    TITLE "16:cjc171_09642"
    INDEX 01 00:53:05
  TRACK 45 AUDIO
    TITLE "0:"
    INDEX 01 00:54:20
  TRACK 46 AUDIO
    TITLE "17:cjc171_09643"
    INDEX 01 00:54:49
  TRACK 47 AUDIO
    TITLE "0:"
    INDEX 01 00:57:10
  TRACK 48 AUDIO
    TITLE "18:cjc171_09644"
    INDEX 01 00:57:65
  TRACK 49 AUDIO
    TITLE "0:"
    INDEX 01 01:00:26
  TRACK 50 AUDIO
    TITLE "16:cjc171_09645"
    INDEX 01 01:01:30
  TRACK 51 AUDIO
    TITLE "0:"
    INDEX 01 01:02:51
  TRACK 52 AUDIO
    TITLE "17:cjc171_09646"
    INDEX 01 01:03:07
  TRACK 53 AUDIO
    TITLE "0:"
    INDEX 01 01:05:70
  TRACK 54 AUDIO
    TITLE "18:cjc171_09647"
    INDEX 01 01:06:50
  TRACK 55 AUDIO
    TITLE "0:"
    INDEX 01 01:09:39
  TRACK 56 AUDIO
    TITLE "16:cjc171_09648"
    INDEX 01 01:10:36
  TRACK 57 AUDIO
    TITLE "0:"
    INDEX 01 01:11:44
  TRACK 58 AUDIO
    TITLE "17:cjc171_09649"
    INDEX 01 01:11:69
  TRACK 59 AUDIO
    TITLE "0:"
    INDEX 01 01:14:13
  TRACK 60 AUDIO
    TITLE "18:cjc171_09650"
    INDEX 01 01:14:62
  TRACK 61 AUDIO
    TITLE "0:"
    INDEX 01 01:17:05
  TRACK 62 AUDIO
    TITLE "16:cjc171_09651"
    INDEX 01 01:18:01
  TRACK 63 AUDIO
    TITLE "0:"
    INDEX 01 01:19:27
  TRACK 64 AUDIO
    TITLE "17:cjc171_09652"
    INDEX 01 01:19:47
  TRACK 65 AUDIO
    TITLE "0:"
    INDEX 01 01:21:62
  TRACK 66 AUDIO
    TITLE "18:cjc171_09653"
    INDEX 01 01:22:36
  TRACK 67 AUDIO
    TITLE "0:"
    INDEX 01 01:24:48
  TRACK 68 AUDIO
    TITLE "16:cjc171_09654"
    INDEX 01 01:25:48
  TRACK 69 AUDIO
    TITLE "0:"
    INDEX 01 01:27:07
  TRACK 70 AUDIO
    TITLE "17:cjc171_09655"
    INDEX 01 01:27:27
  TRACK 71 AUDIO
    TITLE "0:"
    INDEX 01 01:29:73
  TRACK 72 AUDIO
    TITLE "18:cjc171_09656"
    INDEX 01 01:30:41
  TRACK 73 AUDIO
    TITLE "0:"
    INDEX 01 01:33:12
  TRACK 74 AUDIO
    TITLE "16:cjc171_09657"
    INDEX 01 01:34:13
  TRACK 75 AUDIO
    TITLE "0:"
    INDEX 01 01:35:21
  TRACK 76 AUDIO
    TITLE "17:cjc171_09658"
    INDEX 01 01:35:52
  TRACK 77 AUDIO
    TITLE "0:"
    INDEX 01 01:37:47
  TRACK 78 AUDIO
    TITLE "18:cjc171_09659"
    INDEX 01 01:38:27
  TRACK 79 AUDIO
    TITLE "0:"
    INDEX 01 01:40:22
  TRACK 80 AUDIO
    TITLE "16:cjc171_09660"
    INDEX 01 01:41:27
  TRACK 81 AUDIO
    TITLE "0:"
    INDEX 01 01:42:38
  TRACK 82 AUDIO
    TITLE "17:cjc171_09661"
    INDEX 01 01:42:70
  TRACK 83 AUDIO
    TITLE "0:"
    INDEX 01 01:46:24
  TRACK 84 AUDIO
    TITLE "18:cjc171_09662"
    INDEX 01 01:47:04
  TRACK 85 AUDIO
    TITLE "0:"
    INDEX 01 01:50:36
  TRACK 86 AUDIO
    TITLE "16:cjc171_09663"
    INDEX 01 01:51:41
  TRACK 87 AUDIO
    TITLE "0:"
    INDEX 01 01:52:49
  TRACK 88 AUDIO
    TITLE "17:cjc171_09664"
    INDEX 01 01:52:74
  TRACK 89 AUDIO
    TITLE "0:"
    INDEX 01 01:55:02
  TRACK 90 AUDIO
    TITLE "18:cjc171_09665"
    INDEX 01 01:55:55
  TRACK 91 AUDIO
    TITLE "0:"
    INDEX 01 01:57:58
  TRACK 92 AUDIO
    TITLE "16:cjc171_09666"
    INDEX 01 01:58:55
  TRACK 93 AUDIO
    TITLE "0:"
    INDEX 01 01:59:74
  TRACK 94 AUDIO
    TITLE "17:cjc171_09667"
    INDEX 01 02:00:30
  TRACK 95 AUDIO
    TITLE "0:"
    INDEX 01 02:02:53
  TRACK 96 AUDIO
    TITLE "18:cjc171_09668"
    INDEX 01 02:03:27
  TRACK 97 AUDIO
    TITLE "0:"
    INDEX 01 02:05:49
  TRACK 98 AUDIO
    TITLE "16:cjc171_09669"
    INDEX 01 02:06:45
  TRACK 99 AUDIO
    TITLE "0:"
    INDEX 01 02:07:64
  TRACK 100 AUDIO
    TITLE "17:cjc171_09670"
    INDEX 01 02:08:10
  TRACK 101 AUDIO
    TITLE "0:"
    INDEX 01 02:10:01
  TRACK 102 AUDIO
    TITLE "18:cjc171_09671"
    INDEX 01 02:10:52
  TRACK 103 AUDIO
    TITLE "0:"
    INDEX 01 02:12:43
  TRACK 104 AUDIO
    TITLE "16:cjc171_09672"
    INDEX 01 02:13:45
  TRACK 105 AUDIO
    TITLE "0:"
    INDEX 01 02:14:54
  TRACK 106 AUDIO
    TITLE "17:cjc171_09673"
    INDEX 01 02:15:04
  TRACK 107 AUDIO
    TITLE "0:"
    INDEX 01 02:17:31
  TRACK 108 AUDIO
    TITLE "18:cjc171_09674"
    INDEX 01 02:18:09
  TRACK 109 AUDIO
    TITLE "0:"
    INDEX 01 02:20:37
  TRACK 110 AUDIO
    TITLE "16:cjc171_09675"
    INDEX 01 02:21:42
  TRACK 111 AUDIO
    TITLE "0:"
    INDEX 01 02:22:52
  TRACK 112 AUDIO
    TITLE "17:cjc171_09676"
    INDEX 01 02:23:08
  TRACK 113 AUDIO
    TITLE "0:"
    INDEX 01 02:25:11
  TRACK 114 AUDIO
    TITLE "18:cjc171_09677"
    INDEX 01 02:25:69
  TRACK 115 AUDIO
    TITLE "0:"
    INDEX 01 02:27:70
  TRACK 116 AUDIO
    TITLE "16:cjc171_09678"
    INDEX 01 02:29:03
  TRACK 117 AUDIO
    TITLE "0:"
    INDEX 01 02:30:35
  TRACK 118 AUDIO
    TITLE "17:cjc171_09679"
    INDEX 01 02:30:65
  TRACK 119 AUDIO
    TITLE "0:"
    INDEX 01 02:32:72
  TRACK 120 AUDIO
    TITLE "18:cjc171_09680"
    INDEX 01 02:33:49
  TRACK 121 AUDIO
    TITLE "0:"
    INDEX 01 02:35:56
  TRACK 122 AUDIO
    TITLE "16:cjc171_09681"
    INDEX 01 02:36:60
  TRACK 123 AUDIO
    TITLE "0:"
    INDEX 01 02:38:21
  TRACK 124 AUDIO
    TITLE "17:cjc171_09682"
    INDEX 01 02:38:54
  TRACK 125 AUDIO
    TITLE "0:"
    INDEX 01 02:41:02
  TRACK 126 AUDIO
    TITLE "18:cjc171_09683"
    INDEX 01 02:41:55
  TRACK 127 AUDIO
    TITLE "0:"
    INDEX 01 02:44:04
  TRACK 128 AUDIO
    TITLE "16:cjc171_09684"
    INDEX 01 02:45:02
  TRACK 129 AUDIO
    TITLE "0:"
    INDEX 01 02:46:25
  TRACK 130 AUDIO
    TITLE "17:cjc171_09685"
    INDEX 01 02:46:44
  TRACK 131 AUDIO
    TITLE "0:"
    INDEX 01 02:49:13
  TRACK 132 AUDIO
    TITLE "18:cjc171_09686"
    INDEX 01 02:49:60
  TRACK 133 AUDIO
    TITLE "0:"
    INDEX 01 02:52:29
  TRACK 134 AUDIO
    TITLE "16:cjc171_09687"
    INDEX 01 02:53:25
  TRACK 135 AUDIO
    TITLE "0:"
    INDEX 01 02:54:20
  TRACK 136 AUDIO
    TITLE "17:cjc171_09688"
    INDEX 01 02:54:48
  TRACK 137 AUDIO
    TITLE "0:"
    INDEX 01 02:57:15
  TRACK 138 AUDIO
    TITLE "18:cjc171_09689"
    INDEX 01 02:57:68
  TRACK 139 AUDIO
    TITLE "0:"
    INDEX 01 03:00:36
  TRACK 140 AUDIO
    TITLE "16:cjc171_09690"
    INDEX 01 03:01:32
  TRACK 141 AUDIO
    TITLE "0:"
    INDEX 01 03:02:59
  TRACK 142 AUDIO
    TITLE "17:cjc171_09691"
    INDEX 01 03:03:05
  TRACK 143 AUDIO
    TITLE "0:"
    INDEX 01 03:06:21
  TRACK 144 AUDIO
    TITLE "18:cjc171_09692"
    INDEX 01 03:06:66
  TRACK 145 AUDIO
    TITLE "0:"
    INDEX 01 03:10:09
  TRACK 146 AUDIO
    TITLE "16:cjc171_09693"
    INDEX 01 03:11:09
  TRACK 147 AUDIO
    TITLE "0:"
    INDEX 01 03:12:32
  TRACK 148 AUDIO
    TITLE "17:cjc171_09694"
    INDEX 01 03:12:49
  TRACK 149 AUDIO
    TITLE "0:"
    INDEX 01 03:14:39
  TRACK 150 AUDIO
    TITLE "18:cjc171_09695"
    INDEX 01 03:15:09
  TRACK 151 AUDIO
    TITLE "0:"
    INDEX 01 03:16:71
  TRACK 152 AUDIO
    TITLE "16:cjc171_09696"
    INDEX 01 03:17:74
  TRACK 153 AUDIO
    TITLE "0:"
    INDEX 01 03:19:20
  TRACK 154 AUDIO
    TITLE "17:cjc171_09697"
    INDEX 01 03:19:52
  TRACK 155 AUDIO
    TITLE "0:"
    INDEX 01 03:22:15
  TRACK 156 AUDIO
    TITLE "18:cjc171_09698"
    INDEX 01 03:22:69
  TRACK 157 AUDIO
    TITLE "0:"
    INDEX 01 03:25:34
  TRACK 158 AUDIO
    TITLE "16:cjc171_09699"
    INDEX 01 03:26:40
  TRACK 159 AUDIO
    TITLE "0:"
    INDEX 01 03:27:73
  TRACK 160 AUDIO
    TITLE "17:cjc171_09700"
    INDEX 01 03:28:27
  TRACK 161 AUDIO
    TITLE "0:"
    INDEX 01 03:30:47
  TRACK 162 AUDIO
    TITLE "18:cjc171_09701"
    INDEX 01 03:31:27
  TRACK 163 AUDIO
    TITLE "0:"
    INDEX 01 03:33:46
  TRACK 164 AUDIO
    TITLE "16:cjc171_09702"
    INDEX 01 03:34:47
  TRACK 165 AUDIO
    TITLE "0:"
    INDEX 01 03:35:51
  TRACK 166 AUDIO
    TITLE "17:cjc171_09703"
    INDEX 01 03:35:70
  TRACK 167 AUDIO
    TITLE "0:"
    INDEX 01 03:37:53
  TRACK 168 AUDIO
    TITLE "18:cjc171_09704"
    INDEX 01 03:38:21
  TRACK 169 AUDIO
    TITLE "0:"
    INDEX 01 03:40:05
  TRACK 170 AUDIO
    TITLE "16:cjc171_09705"
    INDEX 01 03:40:75
  TRACK 171 AUDIO
    TITLE "0:"
    INDEX 01 03:42:39
  TRACK 172 AUDIO
    TITLE "17:cjc171_09706"
    INDEX 01 03:42:60
  TRACK 173 AUDIO
    TITLE "0:"
    INDEX 01 03:46:39
  TRACK 174 AUDIO
    TITLE "18:cjc171_09707"
    INDEX 01 03:47:09
  TRACK 175 AUDIO
    TITLE "0:"
    INDEX 01 03:50:64
  TRACK 176 AUDIO
    TITLE "16:cjc171_09708"
    INDEX 01 03:51:59
  TRACK 177 AUDIO
    TITLE "0:"
    INDEX 01 03:52:67
  TRACK 178 AUDIO
    TITLE "17:cjc171_09709"
    INDEX 01 03:53:21
  TRACK 179 AUDIO
    TITLE "0:"
    INDEX 01 03:55:22
  TRACK 180 AUDIO
    TITLE "18:cjc171_09710"
    INDEX 01 03:55:71
  TRACK 181 AUDIO
    TITLE "0:"
    INDEX 01 03:57:74
